<?xml version="1.0" encoding="utf-8"?>
<!-- Generator: Adobe Illustrator 19.2.1, SVG Export Plug-In . SVG Version: 6.00 Build 0)  -->
<svg version="1.1" id="Layer_1" xmlns="http://www.w3.org/2000/svg" xmlns:xlink="http://www.w3.org/1999/xlink" x="0px" y="0px"
	 viewBox="0 0 106.5 30" style="enable-background:new 0 0 106.5 30;" xml:space="preserve">
<style type="text/css">
	.st0{fill:#333333;}
</style>
<g>
	<path class="st0" d="M8.9,0c2.8,0,5,0.9,6.6,2.6c1.5,1.5,2.2,3.5,2.2,6c0,2.7-1,4.8-2.9,6.4c-1.6,1.3-3.6,2-6,2
		c-2.8,0-5-0.9-6.7-2.6C0.7,12.7,0,10.8,0,8.4C0,5.7,1,3.5,2.9,2C4.5,0.7,6.5,0,8.9,0z M5.1,29.9c-1,0-1.7-0.2-2.1-0.6
		c-0.3-0.3-0.5-0.8-0.6-1.4c0-0.2-0.1-0.5-0.1-1.1c0-0.4-0.1-0.7-0.1-0.9c-0.1-1-0.3-1.6-0.5-1.8c-0.1-0.1-0.4-0.2-0.9-0.3v-0.2
		c1.1,0,1.9,0,2.4,0c0.1,1.9,0.2,3.3,0.3,4.3c0.1,0.9,0.7,1.4,1.7,1.4c0.6,0,1-0.2,1.3-0.5c0.3-0.3,0.5-1,0.6-2c0-0.5,0.1-1,0.1-1.4
		c0-1-0.4-1.5-1.2-1.6v-0.2h3.2v0.2c-0.6,0-1,0.3-1.2,0.6c-0.2,0.3-0.3,1-0.4,2.3C7.5,27.8,7.3,28.6,7,29
		C6.7,29.6,6.1,29.9,5.1,29.9z M9.1,16.1c2,0,3.4-0.8,4.4-2.4c0.8-1.3,1.2-3,1.2-5.1c0-2.7-0.7-4.8-2.2-6.2
		c-1.1-1.1-2.4-1.6-3.8-1.6c-2,0-3.4,0.8-4.4,2.4c-0.8,1.3-1.2,3-1.2,5.1c0,2.7,0.7,4.8,2.2,6.2C6.4,15.6,7.6,16.1,9.1,16.1z
		 M10,23.6h2c0.3,0.4,1,1.2,2.1,2.4c0.1,0.1,0.5,0.5,1.1,1.1c0.4,0.4,0.6,0.6,0.8,0.8v-1.7c0-1.1-0.1-1.8-0.3-2.1
		c-0.2-0.2-0.6-0.4-1.3-0.4v-0.2h3.2v0.2c-0.4,0-0.7,0.2-0.8,0.3c-0.2,0.2-0.3,1.3-0.3,3.3v2.1h-0.3c-0.7-0.8-1.5-1.7-2.5-2.7
		c-0.6-0.6-1.2-1.2-1.8-1.9v1.3c0,1.5,0.1,2.4,0.3,2.7c0.2,0.3,0.6,0.4,1.3,0.5v0.2h-3.3v-0.2c0.5,0,0.8-0.2,1-0.4
		c0.2-0.3,0.3-1.2,0.3-2.9c0-0.9,0-1.4-0.1-1.5C11,24,10.6,23.8,10,23.6C10,23.7,10,23.6,10,23.6z M50.8,3.9h-0.5
		c-0.1-1.1-0.6-1.8-1.5-2.2c-0.7-0.3-1.7-0.5-3-0.5h-2.1v6.3h1.7c1.3,0,2.2,0,2.8-0.1v3.7h-0.5c0-1-0.2-1.7-0.5-2s-0.9-0.5-1.8-0.5
		c-0.8,0-1.4,0-1.7,0v4.2c0,1.3,0.2,2.1,0.7,2.4c0.3,0.2,1.1,0.4,2.3,0.5v0.5H31.1l-4.3-6.8c-0.5,0.6-1.1,1.4-1.8,2.5
		c-0.8,1.2-1.2,2-1.2,2.5c0,0.7,0.6,1.1,1.8,1.2v0.5h-6.8v-0.5c1.4-0.1,2.4-0.5,3.2-1.1c0.4-0.4,1.1-1.1,1.9-2.4l2.4-3.4l-2.6-4.2
		c-1.4-2.3-3-3.4-4.9-3.5V0.6H24l4,6.2c0.1-0.2,0.4-0.5,0.8-1.1c1.1-1.7,1.7-2.9,1.7-3.5s-0.6-0.9-1.7-1V0.6h6.6v0.5
		c-1.3,0.1-2.4,0.5-3.2,1.2c-0.6,0.5-1.2,1.3-1.9,2.4l-1.8,2.7l3.4,5.2c1.4,2.1,2.8,3.2,4.4,3.2c1.7,0,2.9-0.2,3.6-0.5
		c0.9-0.5,1.4-1.4,1.4-2.7V4c0-1.2-0.2-2-0.7-2.3c-0.4-0.3-1.1-0.5-2.2-0.5V0.6h12.2L50.8,3.9z M22.3,29.5v0.2h-3.5v-0.2
		c0.5-0.1,0.8-0.2,1-0.4c0.2-0.3,0.3-0.7,0.3-1.4v-1.9c0-0.9-0.1-1.4-0.3-1.6c-0.2-0.2-0.5-0.3-1-0.3v-0.2h3.5v0.2
		c-0.5,0.1-0.8,0.2-1,0.3c-0.2,0.2-0.3,0.7-0.3,1.5v1.8c0,0.8,0.1,1.4,0.3,1.6C21.5,29.3,21.8,29.4,22.3,29.5z M29.3,24.2
		c-0.2,0.2-0.6,1-1.2,2.3c-0.9,2-1.4,3.2-1.6,3.5l0,0c0-0.1-0.3-0.7-0.8-1.7c-0.3-0.6-0.5-1.1-0.7-1.6c-0.1-0.2-0.2-0.5-0.4-1
		c-0.2-0.4-0.3-0.7-0.4-0.8c-0.3-0.6-0.7-0.9-1.2-1v-0.2h3.3v0.2c-0.7,0.1-1,0.3-1,0.6c0,0.1,0.2,0.8,0.7,1.9c0.3,0.8,0.6,1.4,0.9,2
		c0.3-0.6,0.5-1.2,0.8-1.9c0.5-1.1,0.7-1.7,0.7-1.9c0-0.3-0.3-0.5-1-0.6v-0.2h2.8V24C29.7,23.9,29.5,24,29.3,24.2z M35.2,25.4v2.4
		H35c0-0.4-0.1-0.7-0.3-0.8c-0.1-0.1-0.4-0.2-0.7-0.2h-1v0.8c0,0.8,0.1,1.2,0.2,1.4c0.1,0.2,0.5,0.3,1,0.3c1,0,1.6-0.6,2-1.9h0.2
		c-0.2,0.8-0.3,1.5-0.5,2.1h-5.1v-0.2c0.5-0.1,0.9-0.2,1-0.4c0.1-0.3,0.2-0.7,0.2-1.4v-2.3c0-0.6-0.1-1-0.3-1.2
		c-0.2-0.2-0.5-0.3-1-0.3v-0.2h5.1v1.6h-0.2c-0.1-0.9-0.8-1.4-2-1.4h-0.7v2.4c0.1,0,0.3,0,0.5,0c0.7,0,1-0.1,1.1-0.1
		c0.1-0.1,0.2-0.3,0.3-0.7h0.4V25.4z M43.8,29.6c-0.4,0-0.8-0.1-1-0.2c-0.3-0.2-0.8-0.6-1.2-1.2c-0.1-0.2-0.5-0.8-1-1.8
		c0.8-0.2,1.2-0.6,1.2-1.3c0-0.8-0.6-1.3-1.8-1.3v3.9c0,0.7,0.1,1.2,0.3,1.4c0.2,0.2,0.5,0.3,1.1,0.3v0.2h-3.6v-0.2
		c0.5-0.1,0.9-0.2,1-0.4c0.1-0.2,0.2-0.5,0.2-0.9v-2.7c0-0.6-0.1-1.1-0.3-1.2c-0.1-0.1-0.5-0.3-1-0.3v-0.2c0.6,0,1.4,0,2.5,0
		c1.8,0,2.7,0.5,2.7,1.5c0,0.6-0.4,1.1-1.3,1.5c0.2,0.4,0.5,0.8,0.9,1.4c0.7,0.9,1.4,1.4,2.1,1.5v0.2h-0.8V29.6z M47.4,29.8
		c-0.5,0-1.1-0.2-1.8-0.5v-1.9h0.2c0.2,1.4,0.8,2.1,1.7,2.1c0.7,0,1.1-0.4,1.1-1.1c0-0.5-0.5-0.9-1.4-1.4c-1.1-0.5-1.6-1.1-1.6-1.8
		c0-0.6,0.3-1,0.8-1.4c0.4-0.3,0.9-0.4,1.4-0.4s1,0.1,1.4,0.4v1.6H49c-0.3-1.1-0.7-1.7-1.4-1.7c-0.3,0-0.5,0.1-0.7,0.3
		c-0.2,0.2-0.3,0.4-0.3,0.6c0,0.5,0.5,1,1.5,1.5s1.5,1.1,1.5,1.8c0,0.6-0.3,1.1-0.8,1.4C48.5,29.7,48,29.8,47.4,29.8z M54.5,29.5
		v0.2H51v-0.2c0.5-0.1,0.8-0.2,0.9-0.4c0.2-0.3,0.3-0.7,0.3-1.4v-1.9c0-0.9-0.1-1.4-0.3-1.6s-0.5-0.3-1-0.3v-0.2h3.5v0.2
		c-0.5,0.1-0.8,0.2-1,0.3c-0.2,0.2-0.3,0.7-0.3,1.5v1.8c0,0.8,0.1,1.4,0.3,1.6C53.7,29.3,54,29.4,54.5,29.5z M61.2,0
		c2.8,0,5,0.9,6.7,2.6c1.5,1.5,2.2,3.5,2.2,6c0,2.7-1,4.8-2.9,6.4c-1.6,1.3-3.6,2-6,2c-2.8,0-5-0.9-6.6-2.6
		c-1.5-1.6-2.2-3.5-2.2-5.9c0-2.7,1-4.8,2.9-6.4C56.8,0.7,58.8,0,61.2,0z M61.4,16.1c2,0,3.5-0.8,4.4-2.4c0.8-1.3,1.2-3,1.2-5.1
		c0-2.7-0.7-4.8-2.2-6.2c-1.1-1.1-2.3-1.6-3.8-1.6c-2,0-3.4,0.8-4.4,2.4c-0.8,1.3-1.2,3-1.2,5.1c0,2.7,0.7,4.8,2.2,6.2
		C58.7,15.6,59.9,16.1,61.4,16.1z M59.1,24v3.4c0,0.9,0.1,1.4,0.3,1.6s0.5,0.3,1,0.4v0.2h-3.6v-0.2c0.5-0.1,0.8-0.2,1-0.4
		c0.2-0.2,0.3-0.8,0.3-1.8V24c-0.9,0-1.5,0.1-1.6,0.2c-0.3,0.2-0.4,0.6-0.6,1.3h-0.3c0.1-0.8,0.2-1.4,0.2-1.9c0.8,0,1.4,0.1,2,0.1
		h1.7c0.9,0,1.6,0,2-0.1v0.3c0,0.2,0,0.5,0.1,0.9c0,0.4,0,0.7,0.1,0.8h-0.2c-0.1-0.7-0.4-1.2-0.7-1.3C60.4,24.1,60,24,59.3,24H59.1z
		 M67.4,25c0,0.1-0.1,0.2-0.2,0.4c-0.1,0.2-0.2,0.4-0.2,0.5c-0.4,0.8-0.6,1.3-0.6,1.4v0.8c0,0.5,0.1,0.8,0.2,1
		c0.2,0.2,0.5,0.3,1,0.4v0.2H64v-0.2c0.6-0.1,0.9-0.2,1.1-0.5c0.1-0.2,0.2-0.4,0.2-0.8v-0.8c-0.3-0.6-0.6-1.2-1-1.7
		c-0.6-0.9-1-1.5-1.2-1.6s-0.4-0.2-0.8-0.2v-0.2h3.1v0.2c-0.5,0.1-0.7,0.3-0.7,0.5s0.2,0.6,0.6,1.2c0.1,0.2,0.3,0.4,0.5,0.8
		c0.2,0.2,0.3,0.4,0.3,0.5c0.2-0.3,0.5-0.7,0.7-1.2c0.3-0.5,0.4-0.9,0.4-1.2c0-0.2-0.2-0.4-0.6-0.5v-0.2h2.5V24
		C68.2,23.9,67.7,24.3,67.4,25z M73.8,16.3V3.7c0-1.1-0.2-1.8-0.5-2.2c-0.3-0.2-0.8-0.4-1.5-0.4V0.6c1.7,0,3.7-0.1,6-0.1
		c4.3,0,6.5,1.2,6.5,3.7c0,1.1-0.5,2.1-1.4,2.9c-0.7,0.6-1.5,1-2.6,1.3L80.8,9c1,1.2,1.9,2.2,2.7,3c2.5,2.5,4.3,3.8,5.4,3.8
		s1.9-0.3,2.3-0.8c0.4-0.4,0.6-1.1,0.6-2.1V4.5c0-1.3-0.2-2.2-0.6-2.6s-1.1-0.7-2.3-0.8V0.6l5.2-0.1h1.4c7.3,0,11,2.6,11,7.9
		c0,1.8-0.6,3.3-1.9,4.8c-1.1,1.2-2.4,2-3.9,2.5c-1.1,0.4-2.6,0.6-4.6,0.6h-7.4c-1.3,0-2.3-0.1-2.9-0.3s-1.3-0.5-2.1-1
		c-1.2-0.7-2.3-1.6-3.2-2.7c-0.6-0.7-1.6-2-3.1-3.9c1.2-0.2,2.3-0.7,3-1.5c0.7-0.7,1-1.4,1-2.3c0-0.8-0.3-1.6-0.9-2.2
		C79.6,1.5,78.3,1,76.7,1h-0.3v12c0,1.2,0.3,2,0.8,2.3c0.3,0.2,1.1,0.4,2.3,0.5v0.5H73.8z M75,27.3v-1.2c0-1.2-0.1-1.9-0.4-2.1
		c-0.2-0.1-0.5-0.2-0.9-0.3v-0.2h2.5c0.8,0,1.5,0.1,2.1,0.4c0.7,0.3,1,0.7,1,1.3c0,1.2-0.9,1.8-2.6,1.9V27c0.6-0.1,0.9-0.2,1.1-0.4
		c0.2-0.2,0.3-0.5,0.3-1c0-1.1-0.7-1.6-2.2-1.6v3.9c0,0.7,0.1,1.2,0.3,1.4c0.2,0.1,0.5,0.3,1.1,0.3v0.2h-3.7v-0.2
		c0.6-0.1,0.9-0.3,1.1-0.5C74.9,28.7,75,28.2,75,27.3z M86.5,29.6c-0.4,0-0.8-0.1-1-0.2c-0.3-0.2-0.8-0.6-1.2-1.2
		c-0.1-0.2-0.5-0.8-1-1.8c0.8-0.2,1.2-0.6,1.2-1.3c0-0.8-0.6-1.3-1.8-1.3v3.9c0,0.7,0.1,1.2,0.3,1.4c0.2,0.2,0.5,0.3,1.1,0.3v0.2
		h-3.6v-0.2c0.5-0.1,0.9-0.2,1-0.4c0.1-0.2,0.2-0.5,0.2-0.9v-2.7c0-0.6-0.1-1.1-0.3-1.2c-0.1-0.1-0.5-0.3-1-0.3v-0.2
		c0.6,0,1.4,0,2.5,0c1.8,0,2.7,0.5,2.7,1.5c0,0.6-0.4,1.1-1.3,1.5c0.2,0.4,0.5,0.8,0.9,1.4c0.7,0.9,1.4,1.4,2.1,1.5v0.2h-0.8V29.6z
		 M92.5,25.4v2.4h-0.2c0-0.4-0.1-0.7-0.2-0.8c-0.1-0.1-0.4-0.2-0.7-0.2h-1v0.8c0,0.8,0.1,1.2,0.2,1.4c0.1,0.2,0.4,0.3,0.9,0.3
		c1,0,1.6-0.6,2.1-1.9h0.2c-0.2,0.9-0.4,1.6-0.6,2.1h-5v-0.2c0.5-0.1,0.9-0.2,1-0.4c0.1-0.2,0.2-0.7,0.2-1.4v-2.3
		c0-0.6-0.1-1-0.3-1.2c-0.2-0.2-0.5-0.3-1-0.3v-0.2h5.1v1.6H93c-0.1-0.6-0.3-1-0.7-1.2c-0.3-0.1-0.7-0.2-1.2-0.2h-0.7v2.4
		c0.1,0,0.2,0,0.5,0c0.7,0,1-0.1,1.2-0.1c0.1-0.1,0.2-0.3,0.2-0.7h0.2V25.4z M95.5,1.3c-0.2,0-0.6,0-1.1,0.1v11.7
		c0,1,0.2,1.7,0.7,2.1c0.4,0.3,1,0.4,2,0.4c2.1,0,3.7-0.8,4.9-2.3c0.9-1.2,1.4-2.8,1.4-4.7c0-2.5-0.8-4.4-2.5-5.7
		C99.5,1.9,97.7,1.3,95.5,1.3z M97,29.8c-0.5,0-1.1-0.2-1.8-0.5v-1.9h0.2c0.2,1.4,0.8,2.1,1.7,2.1c0.7,0,1.1-0.4,1.1-1.1
		c0-0.5-0.5-0.9-1.4-1.4c-1.1-0.5-1.6-1.1-1.6-1.8c0-0.6,0.3-1,0.8-1.4c0.4-0.3,0.9-0.4,1.4-0.4s1,0.1,1.4,0.4v1.6h-0.2
		c-0.3-1.1-0.7-1.7-1.4-1.7c-0.3,0-0.5,0.1-0.7,0.3c-0.2,0.2-0.3,0.4-0.3,0.6c0,0.5,0.5,1,1.5,1.5s1.5,1.1,1.5,1.8
		c0,0.6-0.3,1.1-0.8,1.4C98.1,29.7,97.6,29.8,97,29.8z M102.6,29.8c-0.5,0-1.1-0.2-1.8-0.5v-1.9h0.2c0.2,1.4,0.8,2.1,1.7,2.1
		c0.7,0,1.1-0.4,1.1-1.1c0-0.5-0.5-0.9-1.4-1.4c-1.1-0.5-1.6-1.1-1.6-1.8c0-0.6,0.3-1,0.8-1.4c0.4-0.3,0.9-0.4,1.4-0.4
		s1,0.1,1.4,0.4l-0.1,1.6h-0.2c-0.3-1.1-0.7-1.7-1.4-1.7c-0.3,0-0.5,0.1-0.7,0.3c-0.2,0.2-0.3,0.4-0.3,0.6c0,0.5,0.5,1,1.5,1.5
		s1.5,1.1,1.5,1.8c0,0.6-0.3,1.1-0.8,1.4C103.7,29.7,103.2,29.8,102.6,29.8z"/>
</g>
</svg>
